:SAMPLES-PER-SECOND 30
:FULLY-SPECIFIED
:DEGREES
276
root  -17.3963 34.3201 -13.9719 -171.225 3.42516 179.31
RightUpLeg  -12.4639 -15.2073 -2.08507
RightLeg  12.3236 -2.0974 -0.317811
RightFoot  2.18114 0.0101938 0.0026008
RightToes  -28.9953 -0.138257 -0.246776
Spine  -2.2693 -0.908609 -0.19057
Spine1  -4.18379 -2.26784 0.397217
HEad  -58.1076 1.94875 8.92228
LeftShoulder1  -1.94126e-019 -3.10601e-018 -2.51263e-017
LeftArm  -33.0635 35.6669 -75.863
LeftForeArm  23.3323 -7.78656 -1.35911
LeftHand  -0.466591 0.532799 11.1811
RightShoulder  -4.96962e-017 0 -2.36833e-017
RightArm  -57.6479 -35.9098 67.0169
RightForeArm  57.5035 2.50262 0.421473
RightHand  0.350311 -7.6568 -18.6526
LeftUpLeg  -10.3024 1.86573 2.73425
LeftLeg  11.3477 13.8822 1.8481
LeftFoot  2.8497 -0.0189109 0.746212
LeftToes  -21.9935 1.7763e-006 6.54387e-008
277
root  -17.4052 34.3468 -13.9738 -171.128 3.45956 179.34
RightUpLeg  -12.2491 -15.4187 -2.03794
RightLeg  11.6668 -1.84557 -0.257876
RightFoot  2.53876 0.010095 0.00186213
RightToes  -29.1758 -0.138627 -0.247224
Spine  -2.29986 -0.728559 -0.199125
Spine1  -4.32231 -1.89793 0.363148
HEad  -58.1372 1.5044 8.92192
LeftShoulder1  -1.94126e-019 -3.10601e-018 -2.51263e-017
LeftArm  -33.1707 33.9975 -76.2872
LeftForeArm  22.521 -7.87663 -1.3753
LeftHand  -0.462765 0.727476 11.5342
RightShoulder  -4.96962e-017 0 -2.36833e-017
RightArm  -58.5128 -34.6901 67.8272
RightForeArm  57.3855 2.40449 0.400906
RightHand  0.24267 -7.09853 -17.527
LeftUpLeg  -10.0373 1.83296 2.74517
LeftLeg  10.6241 13.9692 1.68216
LeftFoot  3.15674 -0.0239512 0.828562
LeftToes  -22.1262 1.7763e-006 6.54387e-008
278
root  -17.4151 34.3711 -13.9856 -170.94 3.28668 179.369
RightUpLeg  -12.1229 -15.7433 -1.9689
RightLeg  11.1065 -1.70194 -0.220726
RightFoot  2.82052 0.0100241 0.00102829
RightToes  -29.3783 -0.138962 -0.247636
Spine  -2.41877 -0.6589 -0.211197
Spine1  -4.62166 -1.73953 0.312343
HEad  -58.1706 1.35202 8.89143
LeftShoulder1  -1.94126e-019 -3.10601e-018 -2.51263e-017
LeftArm  -33.4167 32.8895 -76.5977
LeftForeArm  21.3771 -8.30717 -1.45211
LeftHand  -0.458859 0.833362 11.6926
RightShoulder  -4.96962e-017 0 -2.36833e-017
RightArm  -57.5668 -33.5614 68.5114
RightForeArm  58.6253 2.66178 0.440663
RightHand  0.162547 -6.6275 -16.7265
LeftUpLeg  -9.99955 1.83902 2.76578
LeftLeg  10.1343 13.8055 1.54451
LeftFoot  3.33877 -0.0259531 0.864659
LeftToes  -22.1872 1.7763e-006 6.54387e-008
279
root  -17.43 34.3899 -13.9988 -170.704 2.92947 179.367
RightUpLeg  -12.0448 -15.9229 -1.92898
RightLeg  10.6209 -1.86999 -0.22643
RightFoot  3.03315 0.0106411 -0.00934215
RightToes  -29.351 -0.139263 -0.248013
Spine  -2.53723 -0.680002 -0.210653
Spine1  -4.90816 -1.74463 0.283529
HEad  -58.4726 1.49022 8.86304
LeftShoulder1  -1.94126e-019 -3.10601e-018 -2.51263e-017
LeftArm  -32.6128 31.925 -76.8829
LeftForeArm  20.8922 -8.67953 -1.51827
LeftHand  -0.462643 0.915713 11.9987
RightShoulder  -4.96962e-017 0 -2.36833e-017
RightArm  -55.7078 -32.471 69.1475
RightForeArm  58.6698 3.39581 0.568855
RightHand  0.146577 -6.47881 -17.2113
LeftUpLeg  -10.0971 1.82613 2.75662
LeftLeg  9.75036 13.4958 1.41992
LeftFoot  3.49345 -0.0268673 0.884773
LeftToes  -22.2813 1.7763e-006 6.54387e-008
280
root  -17.4462 34.4133 -14.0295 -170.655 2.4762 179.342
RightUpLeg  -11.6976 -16.2606 -1.96081
RightLeg  10.0663 -1.97576 -0.219835
RightFoot  3.25969 0.0110811 -0.0168977
RightToes  -29.3851 -0.139531 -0.248355
Spine  -2.62376 -0.709094 -0.200869
Spine1  -5.12533 -1.75549 0.276844
HEad  -58.6648 1.5455 8.63142
LeftShoulder1  -1.94126e-019 -3.10601e-018 -2.51263e-017
LeftArm  -31.962 31.0423 -77.1696
LeftForeArm  21.4903 -8.76407 -1.53253
LeftHand  -0.4808 0.716152 11.9566
RightShoulder  -4.96962e-017 0 -2.36833e-017
RightArm  -55.8169 -31.3229 69.4714
RightForeArm  59.2283 3.71847 0.623733
RightHand  0.128553 -6.30204 -18.0744
LeftUpLeg  -9.94414 1.69849 2.73431
LeftLeg  9.25501 13.1909 1.27432
LeftFoot  3.70469 -0.0286291 0.918941
LeftToes  -22.3381 1.7763e-006 6.54387e-008
281
root  -17.4665 34.4373 -14.0666 -170.652 2.0177 179.318
RightUpLeg  -11.3228 -16.5754 -2.01552
RightLeg  9.57239 -2.11104 -0.216494
RightFoot  3.48118 0.0116859 -0.0265318
RightToes  -29.3153 -0.139768 -0.248663
Spine  -2.66021 -0.723453 -0.193774
Spine1  -5.23496 -1.73236 0.26692
HEad  -59.004 1.56273 8.49162
LeftShoulder1  -1.94126e-019 -3.10601e-018 -2.51263e-017
LeftArm  -31.2235 30.1567 -77.4464
LeftForeArm  21.6982 -8.67948 -1.51692
LeftHand  -0.491949 0.578288 11.896
RightShoulder  -4.96962e-017 0 -2.36833e-017
RightArm  -55.6483 -30.1661 69.7359
RightForeArm  58.8674 4.16106 0.703993
RightHand  0.181108 -6.65478 -17.919
LeftUpLeg  -9.72542 1.496 2.71023
LeftLeg  8.74871 12.9558 1.1376
LeftFoot  3.92847 -0.0307398 0.959362
LeftToes  -22.3905 1.7763e-006 6.54387e-008
282
root  -17.4907 34.4625 -14.1093 -170.689 1.6412 179.294
RightUpLeg  -10.9094 -16.7143 -2.1003
RightLeg  9.08748 -2.37185 -0.223045
RightFoot  3.68705 0.0127881 -0.0430072
RightToes  -29.2732 -0.139974 -0.248939
Spine  -2.69237 -0.694062 -0.190392
Spine1  -5.32909 -1.62103 0.255228
HEad  -59.1767 1.47443 8.28787
LeftShoulder1  -1.94126e-019 -3.10601e-018 -2.51263e-017
LeftArm  -30.7259 29.4626 -77.7
LeftForeArm  21.4736 -8.58949 -1.50077
LeftHand  -0.501671 0.466385 11.7003
RightShoulder  -4.96962e-017 0 -2.36833e-017
RightArm  -55.2932 -29.155 69.8548
RightForeArm  58.5408 4.60824 0.78211
RightHand  0.14271 -6.41755 -17.7137
LeftUpLeg  -9.43404 1.2972 2.67658
LeftLeg  8.22215 12.7887 1.0059
LeftFoot  4.13253 -0.032819 1.00008
LeftToes  -22.3573 1.7763e-006 6.54387e-008
283
root  -17.5164 34.4858 -14.161 -170.758 1.3661 179.279
RightUpLeg  -10.4799 -16.8394 -2.19265
RightLeg  8.63629 -2.52749 -0.21765
RightFoot  3.85858 0.0135405 -0.0542246
RightToes  -29.0901 -0.14015 -0.249183
Spine  -2.74295 -0.61323 -0.205833
Spine1  -5.45046 -1.41922 0.212979
HEad  -59.205 1.18878 8.24368
LeftShoulder1  -1.94126e-019 -3.10601e-018 -2.51263e-017
LeftArm  -30.6846 28.9514 -77.874
LeftForeArm  21.7306 -8.33707 -1.45561
LeftHand  -0.502479 0.420168 11.6764
RightShoulder  -4.96962e-017 0 -2.36833e-017
RightArm  -54.8409 -28.3566 69.8197
RightForeArm  58.1016 4.68109 0.796094
RightHand  0.148934 -6.44007 -17.9848
LeftUpLeg  -9.08233 1.19414 2.63653
LeftLeg  7.70829 12.6341 0.88101
LeftFoot  4.3071 -0.0344011 1.03382
LeftToes  -22.3386 1.7763e-006 6.54387e-008
284
root  -17.5402 34.4984 -14.2191 -170.801 1.1747 179.259
RightUpLeg  -10.1733 -16.9697 -2.28366
RightLeg  8.36529 -2.59863 -0.211415
RightFoot  3.95045 0.013833 -0.058619
RightToes  -29.0636 -0.140298 -0.249396
Spine  -2.82675 -0.495865 -0.240461
Spine1  -5.62896 -1.15811 0.133329
HEad  -59.0655 0.763252 8.39511
LeftShoulder1  -1.94126e-019 -3.10601e-018 -2.51263e-017
LeftArm  -30.3793 28.853 -77.8015
LeftForeArm  21.9258 -8.22718 -1.43566
LeftHand  -0.506683 0.279929 11.5627
RightShoulder  -4.96962e-017 0 -2.36833e-017
RightArm  -54.636 -27.8354 69.6811
RightForeArm  58.1231 4.57241 0.77838
RightHand  0.192945 -6.70286 -18.2696
LeftUpLeg  -8.8585 1.05079 2.59114
LeftLeg  7.45496 12.6049 0.823508
LeftFoot  4.33963 -0.0343551 1.04294
LeftToes  -22.096 1.7763e-006 6.54387e-008
285
root  -17.5634 34.4968 -14.2793 -170.814 1.0228 179.23
RightUpLeg  -10.0009 -17.1916 -2.37588
RightLeg  8.29411 -2.51074 -0.201095
RightFoot  3.94071 0.0131858 -0.049345
RightToes  -29.2222 -0.140419 -0.24958
Spine  -2.89875 -0.361115 -0.283411
Spine1  -5.77733 -0.872348 0.0373081
HEad  -59.2087 0.330867 8.56391
LeftShoulder1  -1.94126e-019 -3.10601e-018 -2.51263e-017
LeftArm  -30.3467 29.0522 -77.5554
LeftForeArm  21.3513 -8.34104 -1.45595
LeftHand  -0.506212 0.292239 11.5788
RightShoulder  -4.96962e-017 0 -2.36833e-017
RightArm  -54.4208 -27.6007 69.467
RightForeArm  58.4167 4.61092 0.784135
RightHand  0.181661 -6.64606 -18.073
LeftUpLeg  -8.76905 0.838898 2.54267
LeftLeg  7.45121 12.6457 0.825307
LeftFoot  4.25509 -0.0328107 1.02942
LeftToes  -22.0385 1.7763e-006 6.54387e-008
286
root  -17.5833 34.4862 -14.3345 -170.838 0.908249 179.194
RightUpLeg  -9.91213 -17.2649 -2.47682
RightLeg  8.39929 -2.55424 -0.209316
RightFoot  3.80599 0.0127877 -0.0433982
RightToes  -29.2761 -0.140513 -0.249734
Spine  -2.92704 -0.218033 -0.328624
Spine1  -5.83481 -0.576654 -0.0629592
HEad  -59.8575 0.0276135 8.77092
LeftShoulder1  -1.94126e-019 -3.10601e-018 -2.51263e-017
LeftArm  -30.5573 29.4129 -77.1997
LeftForeArm  20.6129 -8.70755 -1.52211
LeftHand  -0.488251 0.494273 11.6115
RightShoulder  -4.96962e-017 0 -2.36833e-017
RightArm  -54.0786 -27.5801 69.2934
RightForeArm  58.4311 4.9001 0.8345
RightHand  0.166282 -6.55744 -17.9253
LeftUpLeg  -8.73929 0.703114 2.48251
LeftLeg  7.59671 12.6748 0.859219
LeftFoot  4.10967 -0.0301986 0.999908
LeftToes  -21.9845 1.7763e-006 6.54387e-008
287
root  -17.601 34.4725 -14.3863 -170.9 0.781143 179.161
RightUpLeg  -9.8486 -17.3045 -2.58215
RightLeg  8.62907 -2.64103 -0.227129
RightFoot  3.63169 0.0126102 -0.04038
RightToes  -29.2597 -0.140581 -0.249861
Spine  -2.91621 -0.103148 -0.36099
Spine1  -5.81209 -0.338694 -0.134625
HEad  -60.6859 -0.126499 8.83828
LeftShoulder1  -1.94126e-019 -3.10601e-018 -2.51263e-017
LeftArm  -30.8175 29.7998 -76.8441
LeftForeArm  20.2016 -9.12934 -1.59853
LeftHand  -0.464184 0.829408 11.8188
RightShoulder  -4.96962e-017 0 -2.36833e-017
RightArm  -53.6746 -27.6102 69.1109
RightForeArm  58.4295 5.19895 0.886697
RightHand  0.152468 -6.46543 -17.951
LeftUpLeg  -8.7069 0.585234 2.43527
LeftLeg  7.79465 12.6522 0.901244
LeftFoot  3.92257 -0.0266826 0.956904
LeftToes  -21.8981 1.7763e-006 6.54387e-008
